<?xml version="1.0" encoding="utf-8"?>
<!-- Generator: Adobe Illustrator 24.3.0, SVG Export Plug-In . SVG Version: 6.00 Build 0)  -->
<svg version="1.1" id="Layer_1" xmlns="http://www.w3.org/2000/svg" xmlns:xlink="http://www.w3.org/1999/xlink" x="0px" y="0px"
	 viewBox="0 0 412 94" enable-background="new 0 0 412 94" xml:space="preserve">
<g>
	<path fill="#3D3421" d="M127.5,58.1c0-0.1-0.1-0.3-0.1-0.4c0-0.1-0.1-0.1-0.1-0.2c0-0.1,0-0.1-0.1-0.2c-0.3-0.7-0.6-1.4-0.8-2.2
		c-0.3-0.7-0.5-1.5-0.8-2.2c-0.1-0.2-0.1-0.4-0.2-0.5c0-0.2-0.1-0.4-0.2-0.5c-0.1-0.4-0.3-0.7-0.4-1.1c-0.1-0.4-0.3-0.8-0.4-1.1
		c0-0.1-0.1-0.2-0.1-0.3c0-0.1,0-0.2-0.1-0.3c-0.5-1.2-0.9-2.3-1.3-3.5c-0.4-1.2-0.8-2.4-1.3-3.5c-0.2-0.5-0.4-0.9-0.5-1.4
		c-0.2-0.5-0.3-0.9-0.5-1.4c0-0.2-0.1-0.3-0.1-0.4c0-0.1-0.1-0.3-0.1-0.4c-0.2-0.4-0.3-0.8-0.5-1.2c-0.1-0.4-0.3-0.8-0.5-1.2
		c-0.1-0.3-0.2-0.5-0.3-0.8c-0.1-0.3-0.2-0.5-0.5-0.6c-0.2-0.1-0.4-0.2-0.7-0.2c-0.3,0-0.5,0-0.8,0h-3.1c0,0-0.1,0-0.1,0
		c0,0-0.1,0-0.1,0c-0.2,0-0.3,0.1-0.5,0.2c-0.2,0.2-0.3,0.4-0.4,0.7c-0.1,0.3-0.2,0.5-0.3,0.8c-0.2,0.5-0.4,1-0.6,1.5
		c-0.2,0.5-0.4,1-0.6,1.5c-0.1,0.1-0.1,0.2-0.1,0.3c0,0.1-0.1,0.2-0.1,0.3c-0.5,1.3-1,2.6-1.5,3.9c-0.5,1.3-0.9,2.6-1.5,3.9
		c-0.2,0.5-0.4,0.9-0.5,1.4c-0.2,0.5-0.3,0.9-0.5,1.4c-0.2,0.5-0.4,1-0.5,1.5c-0.2,0.5-0.4,1-0.6,1.5c-0.1,0.2-0.2,0.4-0.2,0.6
		c0,0.2-0.1,0.4-0.2,0.6c-0.2,0.5-0.4,1.1-0.6,1.6c-0.2,0.6-0.4,1.1-0.7,1.7c0,0.1-0.1,0.2-0.1,0.3c0,0.1-0.1,0.3-0.1,0.4
		c0,0.2,0,0.3,0,0.4c0,0.1,0.1,0.2,0.2,0.3c0.2,0.1,0.5,0.2,0.9,0.2s0.8,0,1.1,0c0.2,0,0.4,0,0.7,0c0.3,0,0.5,0,0.8,0
		c0.3,0,0.5,0,0.7-0.1c0.2,0,0.4-0.1,0.5-0.2c0.2-0.1,0.3-0.3,0.4-0.6c0.1-0.2,0.2-0.5,0.3-0.7c0.2-0.4,0.3-0.8,0.4-1.3
		c0.1-0.4,0.3-0.8,0.5-1.2c0.1-0.2,0.2-0.5,0.2-0.7s0.2-0.4,0.4-0.5c0.2-0.2,0.6-0.3,1.1-0.3s0.9,0,1.3,0h5.5c0.1,0,0.2,0,0.3,0
		c0.1,0,0.2,0,0.3,0c0.2,0,0.4,0.1,0.6,0.2c0.1,0.1,0.2,0.2,0.3,0.4c0.1,0.1,0.1,0.3,0.2,0.5c0,0.2,0.1,0.4,0.2,0.6
		c0.1,0.3,0.3,0.7,0.4,1.1c0.1,0.4,0.2,0.8,0.4,1.1c0.1,0.2,0.2,0.4,0.2,0.6c0.1,0.2,0.1,0.4,0.3,0.6c0.1,0.2,0.3,0.3,0.5,0.4
		c0.1,0,0.3,0.1,0.4,0c0.1,0,0.3,0,0.5,0h1.6c0.3,0,0.6,0,1.1,0c0.4,0,0.7,0,0.9-0.2c0.1-0.1,0.2-0.2,0.2-0.3c0-0.1,0-0.3,0-0.4
		C127.7,58.4,127.6,58.3,127.5,58.1z M118.4,49.8c-0.2,0-0.4,0.1-0.7,0.1h-3.3c-0.3,0-0.5,0-0.8,0c-0.3,0-0.5-0.1-0.6-0.3
		c-0.1-0.2-0.1-0.4,0-0.6c0.1-0.3,0.1-0.5,0.2-0.7c0.1-0.2,0.1-0.5,0.2-0.7c0.3-0.7,0.5-1.3,0.7-2c0.2-0.7,0.5-1.3,0.7-2
		c0.1-0.3,0.2-0.6,0.3-1c0.1-0.3,0.2-0.6,0.4-0.8c0,0,0.1-0.1,0.1-0.1c0,0,0.1-0.1,0.1-0.1c0.1,0,0.2,0.1,0.3,0.2
		c0.1,0.1,0.2,0.2,0.2,0.4c0.1,0.2,0.1,0.3,0.2,0.5c0,0.2,0.1,0.3,0.1,0.4c0.3,0.8,0.6,1.6,0.9,2.4s0.5,1.6,0.8,2.4
		c0,0.1,0.1,0.2,0.1,0.3c0,0.1,0,0.2,0.1,0.3c0.1,0.2,0.2,0.5,0.2,0.8C118.9,49.5,118.7,49.7,118.4,49.8z"/>
	<path fill="#3D3421" d="M147.4,35c-0.1-0.1-0.3-0.2-0.5-0.2c-0.2,0-0.5,0-0.7,0h-15c0,0-0.1,0-0.1,0c0,0-0.1,0-0.1,0
		c-0.2,0.1-0.4,0.2-0.5,0.4c-0.1,0.2-0.2,0.5-0.2,0.9c0,0.4,0,0.8,0,1.1V58c0,0.3,0,0.5,0,0.8c0,0.2,0.1,0.4,0.3,0.5
		c0.1,0.1,0.3,0.2,0.5,0.2c0.2,0,0.5,0,0.7,0h2c0.2,0,0.4,0,0.6,0c0.2,0,0.4,0,0.5,0c0.1-0.1,0.2-0.1,0.4-0.1c0.1,0,0.2-0.1,0.3-0.2
		c0.1-0.2,0.2-0.5,0.2-1c0-0.5,0-0.9,0-1.2v-6.7c0-0.1,0-0.1,0-0.2c0-0.1,0-0.2,0.1-0.2c0.1-0.3,0.4-0.5,0.8-0.5c0.4,0,0.8,0,1.3,0
		h5.7c0.3,0,0.7,0,1.1,0c0.5,0,0.8,0,0.9-0.1c0.2-0.1,0.3-0.3,0.4-0.5c0-0.2,0.1-0.4,0-0.6c0-0.2,0-0.4,0-0.6c0-0.4,0-0.8,0-1.2
		c0-0.5-0.1-0.8-0.3-0.9c-0.1-0.1-0.2-0.1-0.4-0.1c-0.2,0-0.4,0-0.7,0c-0.2,0-0.5,0-0.7,0c-0.2,0-0.5,0-0.7,0h-6.2
		c-0.2,0-0.4,0-0.5,0c-0.2,0-0.3,0-0.4-0.1c-0.2-0.1-0.3-0.2-0.4-0.3c-0.1-0.1-0.1-0.3-0.2-0.5v-0.4c0-0.1,0-0.3,0-0.4
		c0-0.2,0-0.3,0-0.4v-1.7c0-0.2,0-0.4,0-0.7c0-0.3,0-0.5,0-0.6c0.1-0.3,0.2-0.4,0.4-0.5c0.2-0.2,0.6-0.2,1.1-0.2c0.5,0,1,0,1.3,0
		h6.7c0.3,0,0.7,0,1.2,0s0.8-0.1,1-0.2c0.1-0.1,0.2-0.2,0.2-0.3c0-0.1,0.1-0.2,0.1-0.3c0-0.1,0-0.3,0-0.5c0-0.2,0-0.3,0-0.5
		c0-0.2,0-0.4,0-0.7c0-0.2,0-0.5,0-0.7s0-0.5,0-0.7C147.6,35.2,147.5,35.1,147.4,35z"/>
	<path fill="#3D3421" d="M171.6,58.1c0-0.2-0.1-0.4-0.1-0.6l-0.1-0.6c0-0.2-0.1-0.5-0.1-0.7c0-0.3,0-0.5-0.1-0.7c0-0.1,0-0.2,0-0.3
		c0-0.1,0-0.2,0-0.3c0-0.1,0-0.2,0-0.3c0-0.1,0-0.2,0-0.3c0-0.1,0-0.3,0-0.4c0-0.1,0-0.3,0-0.4c-0.1-0.2-0.1-0.4-0.1-0.7
		c0-0.2,0-0.5-0.1-0.7c-0.1-0.5-0.3-1-0.4-1.4c-0.2-0.4-0.4-0.8-0.7-1.2c-0.2-0.2-0.4-0.5-0.6-0.7c-0.2-0.2-0.5-0.4-0.7-0.6
		c-0.1,0-0.2-0.1-0.2-0.2c-0.1-0.1-0.1-0.2-0.1-0.4c0-0.1,0.1-0.2,0.2-0.3c0.1-0.1,0.2-0.1,0.3-0.2c0.2-0.1,0.3-0.2,0.5-0.4
		c0.1-0.1,0.3-0.2,0.4-0.3c0.1-0.1,0.2-0.2,0.3-0.2c0.1-0.1,0.2-0.2,0.2-0.3c0.1-0.1,0.1-0.1,0.2-0.2c0.1-0.1,0.1-0.2,0.2-0.2
		c0.2-0.3,0.3-0.6,0.5-0.9c0.1-0.3,0.2-0.7,0.3-1c0-0.2,0.1-0.3,0.1-0.5s0-0.3,0.1-0.5c0-0.2,0.1-0.4,0.1-0.7c0-0.3,0-0.5,0-0.7
		v-0.3c-0.1-0.1-0.1-0.2-0.1-0.3c0-0.1,0-0.2,0-0.3c-0.1-0.4-0.2-0.8-0.3-1.2c-0.1-0.3-0.2-0.7-0.4-1c-0.1-0.1-0.2-0.2-0.2-0.4
		c-0.1-0.1-0.1-0.2-0.2-0.4c-0.3-0.5-0.7-0.9-1.2-1.3s-1-0.7-1.6-0.9c-0.2-0.1-0.3-0.1-0.5-0.2c-0.2,0-0.3-0.1-0.5-0.1
		c-0.1,0-0.2-0.1-0.4-0.1s-0.2,0-0.4-0.1c-0.3-0.1-0.6-0.1-1-0.1c-0.3,0-0.7,0-1.1,0h-11.8c0,0-0.1,0-0.2,0c-0.1,0-0.1,0-0.2,0
		c-0.3,0.1-0.4,0.2-0.5,0.3c-0.1,0.2-0.2,0.4-0.2,0.7c0,0.3,0,0.5,0,0.8v22.1c0,0.3,0.1,0.5,0.3,0.6c0.2,0.2,0.5,0.2,0.9,0.2
		c0.4,0,0.8,0,1.2,0h2.1c0.2,0,0.3,0,0.4-0.1c0.2-0.1,0.3-0.2,0.4-0.4c0-0.1,0.1-0.2,0.1-0.4V58c0-0.2,0-0.4,0-0.6
		c0-0.2,0-0.4,0-0.6v-4.5c0-0.4,0-0.8,0-1.3c0-0.5,0.1-0.8,0.2-1.1c0.1-0.1,0.2-0.2,0.3-0.2c0.1,0,0.3,0,0.5-0.1h4.5
		c0.5,0,1,0.1,1.4,0.2c0.1,0,0.3,0.1,0.4,0.1c0.1,0,0.2,0.1,0.3,0.1c0.5,0.2,0.8,0.5,1.1,0.9c0.2,0.4,0.5,0.9,0.7,1.4
		c0.1,0.3,0.1,0.5,0.2,0.8c0,0.3,0.1,0.5,0.1,0.8c0,0.1,0,0.2,0,0.3c0,0.3,0.1,0.5,0.1,0.9c0,0.3,0,0.6,0.1,0.9c0,0.1,0,0.2,0,0.2
		c0,0.1,0,0.2,0,0.3c0.1,0.4,0.2,0.8,0.2,1.2c0,0.4,0.1,0.8,0.3,1.1c0.1,0.2,0.3,0.4,0.6,0.4c0.3,0,0.6,0,1,0h1.9c0.2,0,0.5,0,0.7,0
		c0.2,0,0.4,0,0.6-0.2c0.1,0,0.1-0.1,0.2-0.2c0.1-0.1,0.1-0.2,0-0.4C171.7,58.5,171.7,58.3,171.6,58.1z M166,43
		c-0.1,0.3-0.1,0.6-0.2,0.9c-0.1,0.3-0.2,0.5-0.3,0.7c-0.2,0.3-0.5,0.6-0.8,0.7c-0.3,0.2-0.7,0.3-1,0.4c-0.2,0.1-0.3,0.1-0.5,0.1
		c-0.2,0-0.4,0-0.5,0.1h-0.4c-0.1,0-0.3,0.1-0.5,0.1c-0.2,0-0.4,0-0.5,0h-2.1c-0.2,0-0.4,0-0.7,0c-0.3,0-0.5,0-0.8,0
		c-0.2,0-0.5,0-0.7-0.1c-0.2-0.1-0.4-0.1-0.5-0.3c-0.1-0.2-0.2-0.4-0.2-0.7v-4.1c0-0.3,0-0.6,0-0.9c0-0.3,0-0.5,0.1-0.7
		c0.1-0.2,0.3-0.3,0.6-0.3c0,0,0.1,0,0.1,0c0,0,0.1,0,0.1,0h4c0.6,0,1.1,0,1.6,0c0.5,0,1,0.1,1.4,0.3c0.7,0.3,1.2,0.9,1.5,1.6
		c0.1,0.1,0.1,0.1,0.1,0.2s0,0.1,0.1,0.2c0,0.2,0.1,0.5,0.1,0.8C166.1,42.4,166.1,42.7,166,43z"/>
	<path fill="#3D3421" d="M181.3,36.4c0-0.3,0-0.6,0-0.8c0-0.3-0.1-0.5-0.2-0.6c-0.1-0.2-0.3-0.2-0.5-0.3c-0.2,0-0.5,0-0.7,0h-3
		c0,0-0.1,0-0.2,0c-0.1,0-0.1,0-0.2,0c-0.2,0.1-0.4,0.2-0.5,0.4c-0.1,0.2-0.2,0.5-0.2,0.9c0,0.4,0,0.8,0,1.1V58c0,0.3,0,0.5,0,0.7
		c0,0.2,0.1,0.4,0.2,0.5c0.1,0.1,0.3,0.2,0.5,0.2c0.2,0,0.5,0,0.7,0h2c0.2,0,0.4,0,0.6,0c0.2,0,0.4,0,0.5,0c0.3-0.1,0.5-0.2,0.6-0.4
		c0.1-0.2,0.2-0.5,0.2-0.8c0-0.4,0-0.7,0-1V36.4z"/>
	<path fill="#3D3421" d="M207.3,49.9H204c-0.2,0-0.4,0-0.5,0.1c-0.2,0.1-0.4,0.3-0.5,0.5c-0.1,0.2-0.1,0.4-0.2,0.7
		c-0.1,0.3-0.2,0.6-0.3,0.8c-0.1,0.3-0.2,0.5-0.3,0.8c-0.3,0.5-0.7,0.9-1,1.3c-0.4,0.4-0.8,0.7-1.4,0.9c-0.2,0.1-0.5,0.2-0.7,0.2
		c-0.2,0-0.5,0.1-0.8,0.1c-0.1,0-0.2,0-0.3,0c-0.1,0-0.3,0-0.5,0c-0.2,0-0.3,0-0.4,0h-0.3c-0.1,0-0.2,0-0.3,0c-0.1,0-0.2,0-0.3,0
		c-0.3-0.1-0.6-0.2-0.9-0.3c-0.3-0.1-0.5-0.2-0.8-0.3c-0.8-0.4-1.5-1-2-1.7c-0.5-0.7-0.9-1.5-1.2-2.5c-0.1-0.2-0.1-0.4-0.2-0.7
		c0-0.2-0.1-0.5-0.1-0.7c0-0.2-0.1-0.4-0.1-0.6c-0.1-0.1-0.1-0.2-0.1-0.3c0-0.1,0-0.2,0-0.4v-0.3c0-0.1,0-0.2,0-0.3
		c0-0.1,0-0.2,0-0.3c0-0.2,0-0.4,0-0.6c0-0.2,0-0.4,0.1-0.6c0-0.2,0.1-0.3,0.1-0.5c0-0.2,0-0.3,0-0.4c0-0.2,0-0.3,0.1-0.4
		c0-0.1,0-0.3,0.1-0.5c0.1-0.3,0.2-0.7,0.3-1c0.1-0.3,0.2-0.6,0.3-0.9c0.6-1.5,1.8-2.7,3.3-3.3c0.2-0.1,0.3-0.1,0.5-0.2
		c0.1,0,0.3-0.1,0.5-0.1c0.4-0.1,1-0.2,1.5-0.2c0.6,0,1.1,0.1,1.5,0.2c0.6,0.2,1.1,0.4,1.6,0.7c0.7,0.4,1.3,1,1.7,1.8
		c0.1,0.2,0.3,0.4,0.4,0.7c0.1,0.3,0.2,0.5,0.4,0.7c0.1,0.1,0.3,0.1,0.5,0.2c0.2,0,0.5,0.1,0.8,0.1c0.3,0,0.6,0,0.9,0
		c0.3,0,0.5,0,0.7,0c0.2,0,0.3,0,0.5,0c0.2,0,0.3,0,0.5-0.1h0.3c0.1,0,0.3-0.1,0.4-0.1c0.1,0,0.2-0.1,0.3-0.3c0.1-0.2,0.1-0.4,0-0.6
		c0-0.2-0.1-0.4-0.1-0.5c-0.1-0.5-0.3-0.9-0.4-1.3c-0.2-0.4-0.4-0.8-0.6-1.2c-0.9-1.5-2.2-2.6-3.8-3.5c-1.6-0.9-3.6-1.3-6-1.2
		c0,0-0.1,0-0.2,0s-0.1,0-0.2,0c-0.2,0-0.4,0-0.5,0.1c-0.2,0-0.3,0-0.5,0c-0.1,0-0.2,0.1-0.4,0.1s-0.3,0-0.4,0.1
		c-0.3,0.1-0.6,0.1-0.9,0.2c-0.3,0.1-0.6,0.2-0.9,0.3c-0.8,0.3-1.5,0.7-2.2,1.1c-0.6,0.4-1.2,0.9-1.8,1.5c-0.1,0.1-0.3,0.3-0.4,0.4
		c-0.1,0.1-0.3,0.3-0.4,0.5c-0.4,0.5-0.8,1.1-1.1,1.7c-0.2,0.3-0.3,0.5-0.4,0.8c-0.1,0.3-0.2,0.6-0.4,0.9c-0.1,0.3-0.2,0.6-0.3,0.9
		c-0.1,0.3-0.1,0.6-0.2,0.9c0,0.2-0.1,0.4-0.1,0.5c0,0.2-0.1,0.4-0.1,0.5c0,0.2,0,0.4-0.1,0.6c0,0.2,0,0.4-0.1,0.6v0.3
		c0,0,0,0.1,0,0.2c0,0.1,0,0.1,0,0.2c0,0.1-0.1,0.3-0.1,0.5c0,0.2,0,0.4,0.1,0.5v0.7c0,0.1,0,0.2,0,0.3c0,0.1,0,0.2,0,0.3
		c0.1,0.2,0.1,0.4,0.1,0.7c0,0.2,0.1,0.5,0.1,0.7c0,0.1,0,0.2,0,0.3c0,0.1,0,0.2,0.1,0.3c0.1,0.4,0.2,0.7,0.3,1.1
		c0.1,0.3,0.2,0.7,0.4,1c0.6,1.4,1.4,2.6,2.3,3.6c1,1,2.1,1.8,3.5,2.4c0.2,0.1,0.4,0.2,0.6,0.3c0.2,0.1,0.4,0.2,0.6,0.2
		c0.2,0.1,0.5,0.1,0.7,0.2c0.2,0,0.5,0.1,0.7,0.2c0.2,0,0.4,0,0.5,0.1c0.2,0,0.3,0,0.5,0.1c0.2,0,0.3,0,0.3,0
		c0.2,0.1,0.4,0.1,0.6,0.1h1.2c0.2,0,0.3,0,0.5,0c0.1,0,0.3,0,0.5,0c0.1,0,0.2-0.1,0.3,0s0.2,0,0.3,0c0.2,0,0.5-0.1,0.8-0.1
		c0.3,0,0.5-0.1,0.8-0.2c2.4-0.8,4.3-2.2,5.6-4.2c0.1-0.2,0.2-0.3,0.3-0.5c0.1-0.2,0.2-0.4,0.3-0.5c0.2-0.3,0.3-0.6,0.4-0.9
		c0.1-0.3,0.2-0.7,0.3-1l0.2-1c0.1-0.2,0.1-0.5,0.1-0.7c0-0.3-0.1-0.4-0.3-0.6C207.7,50,207.5,49.9,207.3,49.9z"/>
	<path fill="#3D3421" d="M233.1,58.1c-0.1-0.1-0.1-0.3-0.1-0.4c0-0.1-0.1-0.1-0.1-0.2c0-0.1,0-0.1-0.1-0.2c-0.3-0.7-0.6-1.4-0.8-2.2
		c-0.2-0.7-0.5-1.5-0.8-2.2c-0.1-0.2-0.1-0.4-0.2-0.5c-0.1-0.2-0.1-0.4-0.2-0.5c-0.2-0.4-0.3-0.7-0.4-1.1c-0.1-0.4-0.3-0.8-0.4-1.1
		c0-0.1-0.1-0.2-0.1-0.3c0-0.1,0-0.2-0.1-0.3c-0.5-1.2-0.9-2.3-1.3-3.5c-0.4-1.2-0.8-2.4-1.3-3.5c-0.2-0.5-0.4-0.9-0.5-1.4
		c-0.2-0.5-0.3-0.9-0.5-1.4c0-0.2-0.1-0.3-0.1-0.4c0-0.1-0.1-0.3-0.1-0.4c-0.2-0.4-0.3-0.8-0.5-1.2c-0.1-0.4-0.3-0.8-0.5-1.2
		c-0.1-0.3-0.2-0.5-0.3-0.8c-0.1-0.3-0.3-0.5-0.5-0.6c-0.2-0.1-0.4-0.2-0.7-0.2c-0.3,0-0.5,0-0.8,0h-3.1c0,0-0.1,0-0.1,0
		c0,0-0.1,0-0.1,0c-0.2,0-0.3,0.1-0.5,0.2c-0.2,0.2-0.3,0.4-0.4,0.7c-0.1,0.3-0.2,0.5-0.3,0.8c-0.2,0.5-0.4,1-0.6,1.5
		c-0.2,0.5-0.4,1-0.5,1.5c0,0.1-0.1,0.2-0.1,0.3c0,0.1-0.1,0.2-0.1,0.3c-0.5,1.3-1,2.6-1.5,3.9c-0.5,1.3-1,2.6-1.5,3.9
		c-0.2,0.5-0.4,0.9-0.5,1.4c-0.2,0.5-0.3,0.9-0.5,1.4c-0.2,0.5-0.4,1-0.6,1.5c-0.2,0.5-0.4,1-0.6,1.5c-0.1,0.2-0.2,0.4-0.2,0.6
		c-0.1,0.2-0.1,0.4-0.2,0.6c-0.2,0.5-0.4,1.1-0.6,1.6c-0.2,0.6-0.4,1.1-0.6,1.7c0,0.1-0.1,0.2-0.1,0.3c0,0.1-0.1,0.3-0.1,0.4
		c0,0.2,0,0.3,0,0.4c0,0.1,0.1,0.2,0.2,0.3c0.2,0.1,0.5,0.2,0.9,0.2s0.8,0,1.1,0c0.2,0,0.5,0,0.7,0c0.3,0,0.5,0,0.8,0
		c0.3,0,0.5,0,0.7-0.1c0.2,0,0.4-0.1,0.5-0.2c0.2-0.1,0.3-0.3,0.4-0.6c0.1-0.2,0.2-0.5,0.3-0.7c0.2-0.4,0.3-0.8,0.4-1.3
		c0.1-0.4,0.3-0.8,0.5-1.2c0.1-0.2,0.2-0.5,0.2-0.7s0.2-0.4,0.4-0.5c0.3-0.2,0.6-0.3,1.1-0.3c0.5,0,0.9,0,1.3,0h5.5
		c0.1,0,0.2,0,0.3,0c0.1,0,0.2,0,0.3,0c0.2,0,0.4,0.1,0.5,0.2c0.1,0.1,0.2,0.2,0.3,0.4c0.1,0.1,0.1,0.3,0.2,0.5
		c0.1,0.2,0.1,0.4,0.2,0.6c0.1,0.3,0.3,0.7,0.4,1.1c0.1,0.4,0.2,0.8,0.4,1.1c0.1,0.2,0.2,0.4,0.2,0.6s0.1,0.4,0.3,0.6
		c0.1,0.2,0.3,0.3,0.6,0.4c0.1,0,0.3,0.1,0.4,0c0.2,0,0.3,0,0.5,0h1.6c0.3,0,0.6,0,1.1,0c0.4,0,0.7,0,0.9-0.2
		c0.1-0.1,0.2-0.2,0.2-0.3c0-0.1,0-0.3,0-0.4C233.2,58.4,233.2,58.3,233.1,58.1z M224,49.8c-0.2,0-0.4,0.1-0.7,0.1H220
		c-0.3,0-0.5,0-0.8,0c-0.3,0-0.5-0.1-0.6-0.3c-0.1-0.2-0.1-0.4,0-0.6c0.1-0.3,0.1-0.5,0.2-0.7c0.1-0.2,0.2-0.5,0.2-0.7
		c0.3-0.7,0.5-1.3,0.7-2c0.2-0.7,0.5-1.3,0.8-2c0.1-0.3,0.2-0.6,0.3-1c0.1-0.3,0.2-0.6,0.4-0.8c0,0,0.1-0.1,0.1-0.1
		c0,0,0.1-0.1,0.1-0.1c0.1,0,0.2,0.1,0.3,0.2c0.1,0.1,0.2,0.2,0.2,0.4c0.1,0.2,0.1,0.3,0.2,0.5c0,0.2,0.1,0.3,0.1,0.4
		c0.3,0.8,0.6,1.6,0.9,2.4c0.2,0.8,0.5,1.6,0.8,2.4c0,0.1,0.1,0.2,0.1,0.3c0,0.1,0,0.2,0.1,0.3c0.1,0.2,0.2,0.5,0.2,0.8
		C224.4,49.5,224.3,49.7,224,49.8z"/>
	<path fill="#3D3421" d="M48.6,0c-26,0-47,21-47,47c0,26,21,47,47,47c26,0,47-21.1,47-47C95.6,21,74.5,0,48.6,0z M80.9,41.2
		c-0.4,0.3-0.7,2.3-1.1,2.6c-0.4,0.3-0.6,1.5-1.1,2c-0.6,0.5-0.1,1.3-0.4,1.5c-0.3,0.2-0.7,0.4-1.3,0.8c-0.5,0.3-1.3,1.1-1.9,1.5
		l-10.3,1.8c0,0.2,0,0.3,0,0.5L75,49.6c-0.2,0.1-0.3,0.2-0.4,0.2c-0.6,0.3-0.3,1-1.7,2.2c-1.4,1.2-0.6,1.1-1.6,2c-1,0.9-1,1.5-1,2
		c0,0.1,0,0.1,0.1,0.2l-5.8-2.8c0,0.1-0.1,0.3-0.2,0.4l6.3,2.8c0.1,0.2,0.1,0.5-0.2,1.2c-0.3,0.7,0.8,1.4,1.1,1.9
		c0.4,0.5,0.3,1.3,0.1,2.2c-0.2,0.9,0.7,1.7-0.6,3.3c-0.8,1-0.9,0.6-2.1,1c-1.2,0.4-1,0.9-2.3,1.9c-1.3,1-0.3,1.7-0.2,2.3
		c0.3,2.6-0.8,2.4-1.9,3.1c-1,0.6-0.6,1.2-0.8,2c-0.2,0.8-1.5,1-1.8,2c-0.3,1-2,2.1-2.8,2.8c-0.8,0.7-2.7,1.3-3.6,1.2
		c-1-0.1-1.4-0.3-2.5,0.2c-1.1,0.6-1.5-0.6-1.9-1.2c-0.3-0.6,0.1-0.7,0-1.2c-0.1-0.5-0.2-0.6-0.6-1.7c-0.4-1-0.7-0.4-1.3-1.3
		c-0.6-0.9-1.1-3.1-1.3-4.1c-0.2-1-0.6-1.5-1.2-3c-0.6-1.5-1.2-1.7-1.5-2.9c-0.4-1.2,0.9-4,1.3-4.6c0.4-0.6,0.7-1.5,0.4-2.1
		c-0.3-0.7-0.6-1.4-0.7-2.3c-0.1-0.9-1.2-2.4-1.7-3.3C43.9,53,43.2,53,43,52.3c-0.2-0.6-1-0.3-1.1-0.8c-0.1-0.4,0.7-0.8,0.9-1.2
		c0.2-0.4-0.2-1.5,0-2c0.2-0.6,0.4-0.8-0.1-1.6c-0.6-0.8-1.8-0.4-2.4-0.3c-0.6,0.1-1.3-0.6-1.7-1.3c-0.4-0.7-1.5-0.6-2.6-0.6
		c-1.2,0.1-2,1-2.5,1c-0.6,0-1.3,0.5-2,0.3c-0.7-0.1-2.2-0.3-2.7-0.1c-0.5,0.1-1.3,0.9-1.5,0.5c-0.2-0.4-0.6,0.1-1.2-0.5
		c-0.6-0.6-2.9-2.3-3.4-2.9c-0.5-0.6-0.1-1-0.3-1.5c-0.2-0.4-1-1.1-1.7-2c-0.7-0.8-0.7-0.1-0.9-0.6c-0.2-0.5-0.1-1-0.2-1.9
		s0.1-1.3,0.7-2c0.6-0.6,0.4-1.5,0.5-2.1c0.1-0.6-0.4-0.9-0.2-1.1c0.2-0.2,0.3-0.2,0.2-1.2c-0.1-1,0.2-1.7,0.9-2.4
		c0.7-0.8,1.1-1.7,1.5-2.3c0.4-0.5,1.8-2,2.8-2.4c0.9-0.4,1.6-1,2.1-1.3c0.5-0.3-0.1-1.1,0.3-1.6c0.4-0.5,0.5-0.5,1.1-1.2
		c0.6-0.6,1.1-0.4,2-1.1c0.9-0.7,0.8-1.1,1-1.1h0.6c0.5,0,0.1,0.4,2.2,0.4c1.1,0,3.1-1,4-1s3,0.1,4.1,0.2c1,0,1.2-0.5,1.7,0
		c0.3,0.4,0.7-0.1,0.9,0.1c0.4,0.3,0,1-0.5,1.7c-0.5,0.7,0.1,1,1,1.6c0.9,0.6,1.9-0.4,2.7,0.8c0.8,1.2,1.1,0.3,1.7,0.9
		s1.7,0.8,2.1,0.3c0.3-0.4-0.2-0.8,0.2-1.1c0.4-0.3,0.4-1,1.5-1c1,0.1,0.8,0.8,1.5,0.8c0.7,0,1.3,0.1,2,0.4c0.7,0.3,1.5,0.7,2.5,0.7
		c0.9,0,0.9-0.3,1.3-0.3c0.4,0,0.9,0.7,1,0.4c0.1-0.2,0.5-0.3,0.5-0.3s0,0.5,0,1c0,0.5,0.2,1,0.6,1.3c0.4,0.3,0.7,1.2,1,1.7
		s0.5,0.9,1.2,1.7c0.8,0.8,0.6,1,1.6,2.4c1,1.3,0.4,2.2,1,2.9c0.6,0.6,1.3,1.5,1.5,2c0.2,0.6,0.1,0.9,1,1.3c0.9,0.4,1.9,1.4,2.7,2.4
		c0.8,1-0.4,0.5,0.5,1.5c0.9,1,2.2,0.3,2.8,0.1c0.6-0.2,1.1-0.8,2.2-0.6c1.1,0.1,1.5-0.4,1.8,0.1C81.4,40.1,81.3,40.9,80.9,41.2z"/>
	<path fill="#3D3421" d="M56.5,52.5l-11,2.4l11.1-1.9C56.6,52.8,56.5,52.6,56.5,52.5z"/>
	<path fill="#3D3421" d="M56.8,50.4l-12.9-3.9l12.7,4.3C56.7,50.7,56.8,50.6,56.8,50.4z"/>
	<path fill="#3D3421" d="M57.3,54.4l-10.1,8.7l10.4-8.4C57.5,54.7,57.3,54.6,57.3,54.4z"/>
	<path fill="#3D3421" d="M58,48.8l-7.2-7.4l6.9,7.7C57.8,49,57.9,48.9,58,48.8z"/>
	<path fill="#3D3421" d="M55.5,65.2l3.8-9.3c-0.2,0-0.3-0.1-0.4-0.2L55.5,65.2z"/>
	<path fill="#3D3421" d="M59.9,48l-3.7-15.9l3.2,16C59.6,48,59.7,48,59.9,48z"/>
	<path fill="#3D3421" d="M61,56.2l2.5,13.1l-2-13.2C61.3,56.1,61.1,56.1,61,56.2z"/>
	<path fill="#3D3421" d="M63,55.5l7.5,9.8l-7.2-10.1C63.2,55.3,63.1,55.4,63,55.5z"/>
	<path fill="#3D3421" d="M64.6,36.8L61.4,48c0.1,0,0.3,0.1,0.4,0.1L64.6,36.8z"/>
	<path fill="#3D3421" d="M63.6,49.2l9-8.2l-9.3,7.9C63.3,48.9,63.5,49,63.6,49.2z"/>
	<path fill="#3D3421" d="M64,52c0-1.8-1.5-3.3-3.3-3.3c-1.8,0-3.3,1.5-3.3,3.3c0,1.9,1.5,3.4,3.3,3.4C62.5,55.4,64,53.9,64,52z
		 M63,52.1c0,1.3-1.1,2.4-2.4,2.4c-1.3,0-2.4-1.1-2.4-2.4s1.1-2.4,2.4-2.4C61.9,49.7,63,50.7,63,52.1z"/>
	<polygon fill="#3D3421" points="262.6,56.2 245.5,34.7 243.8,34.7 243.8,59.4 245.6,59.4 245.6,37.5 263,59.4 264.3,59.4 
		264.3,34.7 262.6,34.7 	"/>
	<polygon fill="#3D3421" points="273.5,47.8 287.7,47.8 287.7,46.1 273.5,46.1 273.5,36.4 289.3,36.4 289.3,34.7 271.7,34.7 
		271.7,59.4 289.4,59.4 289.4,57.8 273.5,57.8 	"/>
	<polygon fill="#3D3421" points="319.1,56.7 311.9,34.7 310.5,34.7 303.2,56.7 295.5,34.7 293.4,34.7 302.4,59.6 303.9,59.6 
		311.1,38.2 318.3,59.6 319.8,59.6 328.8,34.7 326.9,34.7 	"/>
	<polygon fill="#3D3421" points="341.4,34.7 339.6,34.7 339.6,59.4 355.9,59.4 355.9,57.8 341.4,57.8 	"/>
	<rect x="361.7" y="34.7" fill="#3D3421" width="1.8" height="24.7"/>
	<polygon fill="#3D3421" points="371.1,59.4 372.9,59.4 372.9,48.2 386.9,48.2 386.9,46.6 372.9,46.6 372.9,36.4 388.5,36.4 
		388.5,34.7 371.1,34.7 	"/>
	<polygon fill="#3D3421" points="396.1,57.8 396.1,47.8 410.2,47.8 410.2,46.1 396.1,46.1 396.1,36.4 411.8,36.4 411.8,34.7 
		394.2,34.7 394.2,59.4 412,59.4 412,57.8 	"/>
</g>
</svg>
