<svg width="16" height="16" viewBox="0 0 16 16" fill="none" xmlns="http://www.w3.org/2000/svg">
<path d="M3.57288 15.9688C3.0859 15.9688 2.66916 15.7955 2.32267 15.449C1.97558 15.1019 1.80204 14.6849 1.80204 14.1979V2.6875C1.55117 2.6875 1.34074 2.6028 1.17074 2.43339C1.00133 2.26339 0.916626 2.05295 0.916626 1.80208C0.916626 1.55122 1.00133 1.34078 1.17074 1.17078C1.34074 1.00137 1.55117 0.916667 1.80204 0.916667H5.34371C5.34371 0.665799 5.42871 0.455365 5.59871 0.285365C5.76812 0.115955 5.97826 0.03125 6.22913 0.03125H9.77079C10.0217 0.03125 10.2321 0.115955 10.4021 0.285365C10.5715 0.455365 10.6562 0.665799 10.6562 0.916667H14.1979C14.4487 0.916667 14.6589 1.00137 14.8283 1.17078C14.9983 1.34078 15.0833 1.55122 15.0833 1.80208C15.0833 2.05295 14.9983 2.26339 14.8283 2.43339C14.6589 2.6028 14.4487 2.6875 14.1979 2.6875V14.1979C14.1979 14.6849 14.0246 15.1019 13.6781 15.449C13.3311 15.7955 12.914 15.9688 12.427 15.9688H3.57288ZM3.57288 2.6875V14.1979H12.427V2.6875H3.57288ZM5.34371 11.5417C5.34371 11.7925 5.42871 12.0027 5.59871 12.1721C5.76812 12.3421 5.97826 12.4271 6.22913 12.4271C6.47999 12.4271 6.69043 12.3421 6.86043 12.1721C7.02984 12.0027 7.11454 11.7925 7.11454 11.5417V5.34375C7.11454 5.09288 7.02984 4.88245 6.86043 4.71245C6.69043 4.54304 6.47999 4.45833 6.22913 4.45833C5.97826 4.45833 5.76812 4.54304 5.59871 4.71245C5.42871 4.88245 5.34371 5.09288 5.34371 5.34375V11.5417ZM8.88538 11.5417C8.88538 11.7925 8.97038 12.0027 9.14038 12.1721C9.30979 12.3421 9.51992 12.4271 9.77079 12.4271C10.0217 12.4271 10.2321 12.3421 10.4021 12.1721C10.5715 12.0027 10.6562 11.7925 10.6562 11.5417V5.34375C10.6562 5.09288 10.5715 4.88245 10.4021 4.71245C10.2321 4.54304 10.0217 4.45833 9.77079 4.45833C9.51992 4.45833 9.30979 4.54304 9.14038 4.71245C8.97038 4.88245 8.88538 5.09288 8.88538 5.34375V11.5417Z" fill="black"/>
</svg>
