<svg width="48" height="48" viewBox="0 0 48 48" fill="none" xmlns="http://www.w3.org/2000/svg">
<path d="M34.4012 0C42.5355 0 48 5.70747 48 14.2001V33.7999C48 42.2925 42.5354 48 34.3988 48H13.5988C5.46455 48 0 42.2925 0 33.7999V14.2001C0 5.70747 5.46455 0 13.5988 0H34.4012ZM37.0478 25.3201C34.4752 23.7152 32.4889 25.969 31.9532 26.6898C31.4367 27.3858 30.9926 28.1536 30.5244 28.9214C29.3805 30.8161 28.07 33.0006 25.8015 34.2712C22.5048 36.0966 20.0021 34.4149 18.2017 33.1913C17.526 32.7356 16.8695 32.3046 16.2155 32.0173C14.6033 31.3214 13.1529 32.1139 11.0002 34.8483C9.8707 36.2774 8.75089 37.6941 7.6166 39.1059C6.93844 39.9505 7.10014 41.2533 8.01481 41.818C9.47491 42.717 11.256 43.2 13.2687 43.2H33.4953C34.6369 43.2 35.7808 43.044 36.8716 42.6873C39.3285 41.8848 41.2785 40.0471 42.2969 37.6198C43.1561 35.5789 43.5736 33.1022 42.77 31.0415C42.5021 30.3579 42.1014 29.7214 41.5391 29.1616C40.0646 27.6978 38.6865 26.3307 37.0478 25.3201ZM15.5973 9.6C12.2885 9.6 9.6 12.2922 9.6 15.6C9.6 18.9078 12.2885 21.6 15.5973 21.6C18.9036 21.6 21.5945 18.9078 21.5945 15.6C21.5945 12.2922 18.9036 9.6 15.5973 9.6Z" fill="#B58A5F"/>
</svg>
